# xmcd
#
# Track frame offsets: 
#        183
#        4118
#        25528
#        54173
#        67360
#        102018
#        116325
#        134235
#        155570
#        168905
#        188058
#
# Disc length: 2573 seconds
#
# Revision: 2
# Processed by: cddbd v1.5.2PL0 Copyright (c) Steve Scherf et al.
# Submitted via: ExactAudioCopy v1.3
#
DISCID=8b0a0b0b
DTITLE=Tower of Power - Back to Oakland
DYEAR=1974
DGENRE=Funk
TTITLE0=Oakland Stroke...
TTITLE1=Don't Change Horses (In the Middle of a Stream)
TTITLE2=Just When We Start Makin' It
TTITLE3=Can't You See (You Doin' Me Wrong)
TTITLE4=Squib Cakes
TTITLE5=Time Will Tell
TTITLE6=Man From the Past
TTITLE7=Love's Been Gone so Long
TTITLE8=I Got the Chop
TTITLE9=Below Us, all the City Lights
TTITLE10=Oakland Stroke
EXTD=YEAR: 1974
EXTT0=
EXTT1=
EXTT2=
EXTT3=
EXTT4=
EXTT5=
EXTT6=
EXTT7=
EXTT8=
EXTT9=
EXTT10=
PLAYORDER=
